<?xml version="1.0" standalone="no"?>
<!DOCTYPE svg PUBLIC "-//W3C//DTD SVG 20010904//EN"
 "http://www.w3.org/TR/2001/REC-SVG-20010904/DTD/svg10.dtd">
<svg version="1.0" xmlns="http://www.w3.org/2000/svg"
 width="97.000000pt" height="43.000000pt" viewBox="0 0 97.000000 43.000000"
 preserveAspectRatio="xMidYMid meet">

<g transform="translate(0.000000,43.000000) scale(0.100000,-0.100000)"
fill="#000000" stroke="none">
<path d="M48 379 c-12 -12 -18 -35 -18 -64 0 -37 3 -45 19 -45 10 0 27 -11 37
-25 12 -16 29 -25 46 -25 33 0 47 19 25 35 -15 11 -14 13 9 26 23 12 27 11 39
-4 7 -9 24 -17 38 -17 14 0 29 -5 33 -11 3 -6 15 -9 25 -6 11 3 26 -1 33 -9
24 -23 46 -17 46 13 0 25 1 26 19 9 11 -10 26 -16 33 -13 7 2 21 -2 30 -11 22
-18 48 -9 48 18 0 23 15 27 24 5 3 -8 12 -15 21 -15 15 0 19 23 15 82 -1 14 3
29 9 33 7 4 11 -9 11 -37 0 -32 6 -48 21 -61 33 -29 49 -15 49 43 0 54 10 61
45 34 19 -14 19 -16 3 -25 -39 -22 0 -69 57 -69 28 0 35 4 35 20 0 13 -7 20
-20 20 -20 0 -20 1 4 25 14 14 35 25 47 25 21 0 21 -1 6 -18 -22 -24 -21 -35
2 -56 25 -23 84 -18 89 7 3 13 -3 17 -23 17 -23 0 -25 2 -11 15 8 8 17 15 21
15 10 0 35 28 35 39 0 6 -8 20 -17 31 -23 26 -97 28 -112 3 -9 -17 -10 -17
-16 0 -6 15 -22 17 -116 17 -92 0 -111 -3 -116 -16 -6 -15 -7 -15 -19 0 -14
20 -86 19 -90 -2 -1 -7 0 -8 3 -2 8 16 61 12 82 -6 19 -17 18 -41 -3 -57 -8
-6 -7 -10 2 -14 6 -2 12 -17 12 -31 l0 -27 -24 28 c-24 28 -42 36 -33 15 2 -7
0 -24 -5 -37 l-9 -24 -19 21 c-14 15 -20 35 -20 67 0 32 -6 51 -20 65 -24 24
-85 27 -94 5 -7 -19 -35 -20 -42 -1 -4 9 -21 13 -57 12 l-52 -1 -3 -44 c-2
-33 -10 -49 -28 -63 -27 -22 -31 -38 -8 -38 8 0 12 -4 9 -10 -10 -16 -45 -12
-45 6 0 8 -4 13 -9 10 -5 -3 -11 1 -15 9 -3 8 -15 15 -26 15 -17 0 -20 6 -20
38 0 25 7 45 18 55 22 20 82 22 101 5 11 -11 13 -10 9 2 -7 24 -98 24 -120 -1z
m192 -34 c0 -25 5 -45 10 -45 6 0 10 20 10 45 0 25 2 45 5 45 3 0 14 -9 25
-20 14 -14 20 -33 20 -64 0 -46 -13 -68 -24 -41 -3 8 -18 15 -33 15 -44 1 -63
22 -63 69 0 37 2 41 25 41 23 0 25 -4 25 -45z m180 25 c14 -14 20 -33 20 -63
0 -56 -7 -62 -35 -31 -30 32 -35 30 -35 -11 0 -40 -2 -41 -30 -18 -14 12 -20
30 -20 60 0 72 56 107 100 63z m270 10 c0 -5 -9 -10 -20 -10 -17 0 -20 -7 -20
-53 0 -64 -5 -72 -31 -46 -12 12 -19 33 -19 59 0 22 -4 40 -10 40 -5 0 -10 5
-10 10 0 6 25 10 55 10 30 0 55 -4 55 -10z m110 -10 c22 -22 25 -30 10 -30
-14 0 -60 -46 -60 -60 0 -5 9 -10 20 -10 11 0 20 -4 20 -10 0 -17 -49 -11 -69
9 -19 19 -19 20 5 38 25 18 32 47 14 58 -6 3 -13 -1 -16 -9 -8 -21 -24 -10
-24 15 0 27 72 27 100 -1z m120 6 c0 -8 6 -16 13 -19 12 -4 -39 -57 -55 -57
-5 0 -8 -7 -8 -15 0 -9 9 -15 25 -15 14 0 25 -4 25 -10 0 -5 -16 -10 -35 -10
-24 0 -35 5 -35 14 0 8 -6 16 -12 19 -9 3 -6 11 10 24 23 21 30 63 11 63 -6 0
-9 -9 -6 -19 3 -14 1 -18 -9 -14 -8 3 -14 16 -14 29 0 22 4 24 45 24 32 0 45
-4 45 -14z"/>
<path d="M370 355 c0 -8 5 -15 10 -15 6 0 10 7 10 15 0 8 -4 15 -10 15 -5 0
-10 -7 -10 -15z"/>
<path d="M90 349 c0 -19 21 -49 34 -49 3 0 6 9 6 21 0 14 -5 19 -14 16 -10 -4
-12 0 -9 14 3 10 0 19 -6 19 -6 0 -11 -9 -11 -21z"/>
<path d="M500 355 c0 -8 5 -15 10 -15 6 0 10 7 10 15 0 8 -4 15 -10 15 -5 0
-10 -7 -10 -15z"/>
<path d="M318 179 c-24 -26 -25 -127 -2 -136 15 -6 47 21 55 46 4 11 8 10 21
-3 9 -9 24 -16 32 -16 10 0 16 -9 16 -25 0 -15 6 -25 15 -25 22 0 55 32 55 53
0 15 3 14 24 -7 28 -31 76 -35 106 -9 14 13 20 30 20 61 0 26 4 41 10 37 6 -3
10 -29 10 -56 0 -79 48 -106 96 -54 22 24 54 26 54 3 0 -5 19 -8 43 -6 38 3
42 6 45 31 2 15 -2 27 -8 27 -6 0 -9 -4 -6 -9 11 -18 -6 -41 -31 -41 -54 0
-82 81 -43 120 21 21 100 29 100 10 0 -5 -16 -10 -35 -10 -24 0 -35 -5 -35
-15 0 -9 10 -15 26 -15 14 0 23 -4 19 -10 -3 -5 -15 -10 -26 -10 -14 0 -19 -7
-19 -25 0 -27 15 -34 24 -10 3 8 0 15 -7 16 -7 1 -1 4 13 8 14 4 25 13 25 21
0 8 -11 17 -25 22 -21 6 -20 7 10 5 29 -2 35 1 35 18 0 17 -8 20 -52 23 -43 2
-53 0 -53 -12 0 -20 -24 -21 -40 -1 -19 23 -126 21 -139 -2 -9 -17 -10 -17
-16 0 -9 23 -100 25 -113 2 -8 -16 -42 -11 -42 6 0 18 -55 9 -67 -11 -11 -16
-10 -18 2 -14 8 4 15 10 15 15 0 15 28 10 50 -8 26 -23 27 -89 1 -120 -11 -13
-22 -23 -25 -23 -3 0 -6 24 -6 54 0 30 -4 58 -10 61 -6 4 -10 -8 -10 -29 0
-41 -9 -45 -35 -16 -22 25 -35 26 -35 2 0 -18 -34 -45 -44 -35 -3 4 -6 25 -6
47 0 52 31 86 55 62 8 -8 15 -19 15 -25 0 -6 5 -11 11 -11 11 0 4 15 -19 43
-19 21 -32 21 -54 -4z m312 -9 c39 -39 12 -120 -39 -120 -28 0 -81 57 -81 86
0 13 5 24 10 24 6 0 10 7 10 15 0 24 75 20 100 -5z m156 6 c25 -26 17 -83 -16
-116 -17 -17 -36 -30 -42 -30 -21 0 -37 35 -38 83 0 33 -5 49 -15 53 -32 13
-12 24 41 24 35 0 61 -5 70 -14z"/>
<path d="M560 165 c0 -5 7 -17 17 -27 9 -10 13 -21 9 -25 -4 -4 -11 -1 -16 7
-8 13 -10 12 -10 -2 0 -11 8 -18 20 -18 11 0 20 7 20 15 0 9 -9 25 -20 37 -11
12 -20 18 -20 13z"/>
<path d="M732 123 c3 -50 21 -66 25 -23 2 23 2 23 -7 5 -8 -16 -9 -11 -6 23 2
23 0 42 -5 42 -6 0 -9 -21 -7 -47z"/>
</g>
</svg>
